<svg width="64" height="64" viewBox="0 0 64 64" xmlns="http://www.w3.org/2000/svg">
  <defs>
    <linearGradient id="achievementGradient" x1="0%" y1="0%" x2="100%" y2="100%">
      <stop offset="0%" style="stop-color:#f59e0b;stop-opacity:1" />
      <stop offset="100%" style="stop-color:#d97706;stop-opacity:1" />
    </linearGradient>
  </defs>
  
  <!-- Background circle -->
  <circle cx="32" cy="32" r="30" fill="url(#achievementGradient)"/>
  
  <!-- Trophy icon -->
  <g transform="translate(18, 14)">
    <!-- Trophy cup -->
    <path d="M8 8 L8 18 Q8 22 12 22 L16 22 Q20 22 20 18 L20 8 Z" fill="white" opacity="0.9"/>
    
    <!-- Trophy handles -->
    <path d="M6 10 Q4 10 4 12 Q4 14 6 14" fill="white" opacity="0.7" stroke="none"/>
    <path d="M22 10 Q24 10 24 12 Q24 14 22 14" fill="white" opacity="0.7" stroke="none"/>
    
    <!-- Trophy base -->
    <rect x="10" y="22" width="8" height="4" rx="1" fill="white" opacity="0.8"/>
    <rect x="8" y="26" width="12" height="3" rx="1" fill="white" opacity="0.6"/>
    
    <!-- Star in center -->
    <polygon points="14,12 15,15 18,15 15.5,17 16.5,20 14,18 11.5,20 12.5,17 10,15 13,15" fill="#f59e0b"/>
  </g>
</svg>